<?xml version="1.0" standalone="no"?>
<!DOCTYPE svg PUBLIC "-//W3C//DTD SVG 20010904//EN"
 "http://www.w3.org/TR/2001/REC-SVG-20010904/DTD/svg10.dtd">
<svg version="1.0" xmlns="http://www.w3.org/2000/svg"
 width="1084.000000pt" height="769.000000pt" viewBox="0 0 1084.000000 769.000000"
 preserveAspectRatio="xMidYMid meet">

<g transform="translate(0.000000,769.000000) scale(0.100000,-0.100000)"
fill="#000000" stroke="none">
<path d="M2220 7592 c-64 -7 -90 -14 -85 -22 3 -6 -1 -7 -10 -4 -24 10 -119
-59 -165 -120 -79 -104 -99 -220 -59 -339 39 -118 119 -196 240 -237 264 -90
531 150 474 426 -24 113 -106 214 -217 267 -39 18 -135 34 -178 29z m30 -306
l0 -85 28 -3 c22 -2 28 -8 30 -35 2 -22 9 -33 18 -33 13 0 15 12 12 65 l-3 65
48 0 c26 0 48 -4 48 -10 1 -5 3 -14 4 -20 1 -5 3 -14 4 -20 0 -5 11 -10 24
-10 16 0 23 -6 23 -20 0 -11 -4 -20 -8 -20 -5 0 -1 -11 8 -25 17 -26 12 -47
-10 -39 -8 3 -16 -4 -19 -15 -6 -26 -27 -27 -33 -3 -5 15 -21 17 -164 17 -143
0 -159 -2 -164 -17 -6 -24 -33 -23 -41 1 -4 12 -12 17 -24 14 -16 -4 -18 3
-17 71 l1 76 71 0 c41 0 75 -5 82 -12 7 -7 12 -31 12 -55 0 -39 2 -43 25 -43
l25 0 0 120 c0 73 4 120 10 120 6 0 10 -35 10 -84z m143 57 c3 -5 8 -23 12
-40 6 -32 5 -33 -24 -33 -29 0 -31 2 -31 40 0 33 3 40 19 40 11 0 22 -3 24 -7z"/>
<path d="M448 7532 c-25 -5 -34 -52 -30 -149 2 -36 5 -43 22 -43 17 0 20 7 20
40 0 22 5 40 10 40 6 0 10 7 10 15 0 8 -4 15 -10 15 -5 0 -10 11 -10 25 0 16
6 25 15 25 18 0 20 26 3 32 -7 2 -21 3 -30 0z"/>
<path d="M10333 7516 c-72 -33 -94 -136 -42 -192 25 -26 24 -27 -23 -54 -20
-12 -58 -89 -58 -119 0 -36 33 -22 41 17 9 45 54 90 103 103 75 20 157 -32
172 -110 5 -22 12 -31 26 -31 17 0 19 5 13 33 -11 47 -30 81 -65 110 l-30 26
20 33 c12 19 20 51 20 76 0 87 -95 145 -177 108z m112 -49 c41 -35 39 -90 -4
-129 -27 -24 -39 -29 -65 -24 -37 7 -76 48 -76 81 0 81 86 124 145 72z"/>
<path d="M877 7514 c-14 -15 -6 -34 14 -34 14 0 19 5 17 17 -3 18 -20 27 -31
17z"/>
<path d="M1451 7507 c-7 -7 -7 -14 0 -23 12 -15 39 -7 39 11 0 18 -25 26 -39
12z"/>
<path d="M127 7428 c1 -75 3 -83 21 -86 17 -3 21 3 24 30 l3 33 20 -32 c13
-22 27 -33 42 -33 27 0 28 3 8 34 -13 20 -14 26 -1 51 27 52 1 85 -68 85 l-51
0 2 -82z m72 43 c17 -11 7 -41 -14 -41 -9 0 -15 9 -15 25 0 27 6 30 29 16z"/>
<path d="M310 7453 c-21 -8 -40 -34 -40 -55 0 -44 77 -77 108 -46 21 21 13 29
-22 23 -20 -4 -36 -2 -40 4 -5 7 8 11 38 11 48 0 57 11 34 43 -14 18 -55 29
-78 20z m40 -33 c0 -5 -9 -10 -21 -10 -11 0 -17 5 -14 10 3 6 13 10 21 10 8 0
14 -4 14 -10z"/>
<path d="M517 7453 c-27 -7 -14 -28 16 -25 14 1 28 -2 32 -8 4 -6 -6 -10 -23
-10 -37 0 -60 -25 -45 -48 7 -12 24 -17 59 -17 l48 0 -1 45 c-2 60 -27 78 -86
63z m43 -78 c-12 -15 -30 -12 -30 6 0 5 10 9 21 9 18 0 19 -2 9 -15z"/>
<path d="M645 7435 c-30 -29 -31 -49 -5 -75 26 -26 80 -27 80 -1 0 14 -6 17
-24 14 -16 -3 -25 1 -30 13 -8 21 18 46 40 37 8 -3 14 1 14 10 0 14 -20 27
-41 27 -6 0 -21 -11 -34 -25z"/>
<path d="M765 7435 c-30 -29 -31 -49 -5 -75 26 -26 80 -27 80 -1 0 14 -6 17
-24 14 -16 -3 -25 1 -30 12 -9 25 12 46 40 39 28 -7 30 -2 8 20 -22 22 -41 20
-69 -9z"/>
<path d="M970 7453 c-22 -8 -40 -34 -40 -58 0 -50 72 -73 110 -35 32 32 25 66
-17 89 -23 12 -30 12 -53 4z m45 -58 c0 -30 -39 -27 -43 3 -3 20 0 23 20 20
15 -2 23 -10 23 -23z"/>
<path d="M1113 7453 c-33 -4 -33 -5 -33 -59 0 -47 3 -55 18 -52 12 2 18 15 20
46 2 28 8 42 18 42 10 0 14 -12 14 -45 0 -38 3 -45 20 -45 17 0 20 7 20 50 0
38 -4 52 -19 60 -11 5 -21 9 -23 8 -2 0 -18 -3 -35 -5z"/>
<path d="M1237 7453 c-28 -7 -14 -28 17 -25 14 1 26 -2 26 -8 0 -5 -9 -10 -19
-10 -34 0 -51 -12 -51 -36 0 -25 14 -31 78 -32 32 -1 32 -1 32 48 0 62 -22 79
-83 63z m41 -74 c-2 -6 -8 -10 -13 -10 -5 0 -11 4 -13 10 -2 6 4 11 13 11 9 0
15 -5 13 -11z"/>
<path d="M1354 7451 c-2 -2 -4 -28 -4 -58 0 -40 4 -53 15 -53 8 0 16 8 16 18
1 9 2 22 4 27 1 6 3 15 3 21 1 7 11 14 23 17 32 8 17 32 -20 32 -18 0 -35 -2
-37 -4z"/>
<path d="M1533 7454 c-22 -10 -15 -36 7 -29 11 3 25 3 32 -2 9 -5 1 -10 -22
-13 -31 -4 -35 -8 -35 -35 0 -29 1 -30 53 -32 l52 -2 0 42 c0 23 -4 48 -8 54
-9 14 -61 25 -79 17z m47 -73 c0 -14 -18 -23 -30 -16 -6 4 -8 11 -5 16 8 12
35 12 35 0z"/>
<path d="M870 7395 c0 -48 2 -55 20 -55 18 0 20 7 20 55 0 48 -2 55 -20 55
-18 0 -20 -7 -20 -55z"/>
<path d="M1450 7395 c0 -42 3 -55 15 -55 12 0 15 13 15 55 0 42 -3 55 -15 55
-12 0 -15 -13 -15 -55z"/>
<path d="M1528 7249 c-12 -7 -18 -22 -18 -49 0 -22 -4 -40 -10 -40 -5 0 -10
-9 -10 -20 0 -11 5 -20 10 -20 6 0 10 -22 10 -50 0 -43 3 -50 20 -50 17 0 20
7 20 50 0 43 3 50 20 50 27 0 26 30 -1 37 -26 7 -24 60 2 55 21 -3 34 29 17
40 -17 10 -39 10 -60 -3z"/>
<path d="M850 7135 l0 -115 25 0 25 0 0 115 0 115 -25 0 -25 0 0 -115z"/>
<path d="M670 7125 l0 -105 75 0 c68 0 75 2 75 20 0 17 -7 20 -50 20 -47 0
-50 1 -48 25 2 22 7 25 45 25 36 0 43 3 43 20 0 17 -7 20 -46 20 -38 0 -45 3
-42 18 2 13 15 18 51 20 39 3 47 6 47 23 0 17 -7 19 -75 19 l-75 0 0 -105z"/>
<path d="M1030 7125 l0 -105 25 0 c22 0 25 4 25 35 0 32 3 35 28 35 46 0 72
25 72 70 0 51 -26 70 -97 70 l-53 0 0 -105z m98 41 c2 -10 -2 -22 -10 -27 -25
-17 -38 -9 -38 22 0 26 3 30 22 27 13 -2 24 -11 26 -22z"/>
<path d="M1208 7155 c-2 -2 -1 -33 0 -69 3 -57 6 -66 23 -66 15 0 19 7 19 38
0 40 14 64 35 56 13 -5 29 22 20 35 -4 8 -90 13 -97 6z"/>
<path d="M1340 7140 c-39 -39 -21 -104 34 -124 29 -10 82 12 95 40 16 37 14
52 -14 79 -31 32 -86 34 -115 5z m85 -41 c8 -26 -15 -52 -37 -44 -9 4 -18 15
-21 25 -10 38 46 57 58 19z"/>
<path d="M1622 7140 c-42 -39 -20 -112 38 -125 31 -7 81 11 87 32 5 15 -28 22
-48 9 -18 -10 -49 -2 -49 14 0 5 22 10 50 10 46 0 50 2 50 24 0 52 -86 75
-128 36z m76 -27 c2 -8 -6 -13 -22 -13 -25 0 -33 10 -19 24 10 10 36 3 41 -11z"/>
<path d="M1413 6323 c-9 -3 -13 -30 -13 -84 0 -64 3 -79 15 -79 12 0 15 16 15
85 0 47 -1 85 -2 84 -2 0 -9 -3 -15 -6z"/>
<path d="M730 6286 c0 -28 -3 -33 -17 -30 -27 7 -55 -19 -55 -51 0 -36 23 -54
65 -49 18 1 35 3 40 3 4 1 7 37 7 81 0 73 -2 80 -20 80 -16 0 -20 -7 -20 -34z
m-2 -78 c-2 -13 -10 -23 -18 -23 -8 0 -16 10 -18 23 -3 17 2 22 18 22 16 0 21
-5 18 -22z"/>
<path d="M1230 6286 c0 -29 -3 -33 -20 -29 -27 7 -60 -23 -60 -53 0 -31 36
-53 78 -47 l32 5 0 79 c0 64 -3 79 -15 79 -10 0 -15 -10 -15 -34z m-2 -79 c4
-20 -25 -34 -40 -19 -15 15 -1 44 19 40 10 -2 19 -11 21 -21z"/>
<path d="M1920 6284 c0 -31 -2 -35 -21 -29 -44 14 -79 -56 -43 -86 8 -7 33
-13 55 -13 l39 -1 0 83 c0 66 -3 82 -15 82 -11 0 -15 -11 -15 -36z m-2 -77 c4
-20 -25 -34 -40 -19 -15 15 -1 44 19 40 10 -2 19 -11 21 -21z"/>
<path d="M416 6289 c-32 -25 -37 -86 -8 -112 25 -22 67 -30 92 -17 32 17 19
35 -23 32 -31 -3 -38 0 -48 22 -10 22 -9 29 7 47 14 16 26 19 51 14 34 -6 42
2 21 23 -18 18 -62 14 -92 -9z"/>
<path d="M580 6295 c-21 -25 -1 -31 23 -7 17 18 18 22 5 22 -8 0 -21 -7 -28
-15z"/>
<path d="M790 6295 c0 -8 7 -15 15 -15 8 0 15 7 15 15 0 8 -7 15 -15 15 -8 0
-15 -7 -15 -15z"/>
<path d="M8820 6235 l0 -75 45 0 c25 0 45 5 45 10 0 6 -13 10 -30 10 -23 0
-30 4 -30 20 0 16 7 20 30 20 20 0 30 5 30 15 0 10 -10 15 -30 15 -20 0 -30 5
-30 15 0 10 10 15 30 15 20 0 30 5 30 15 0 11 -12 15 -45 15 l-45 0 0 -75z"/>
<path d="M9363 6258 c-53 -102 -63 -128 -50 -128 7 0 32 38 55 85 46 93 47 95
32 95 -5 0 -22 -24 -37 -52z"/>
<path d="M9436 6242 c-20 -39 -36 -74 -36 -77 0 -12 31 -4 36 10 4 8 18 15 34
15 16 0 30 -7 34 -15 4 -13 36 -22 36 -11 0 2 -15 36 -34 77 l-34 73 -36 -72z
m44 -12 c0 -5 -4 -10 -10 -10 -5 0 -10 5 -10 10 0 6 5 10 10 10 6 0 10 -4 10
-10z"/>
<path d="M2197 6269 c-5 -17 -11 -20 -36 -14 -62 14 -98 -38 -56 -81 13 -13
30 -24 38 -24 16 0 45 29 31 31 -5 1 -18 2 -29 3 -13 0 -21 9 -23 24 -3 20 1
22 37 22 40 0 41 -1 41 -35 0 -24 5 -35 15 -35 10 0 15 10 15 34 0 19 5 36 10
38 14 4 -11 58 -26 58 -7 0 -14 -9 -17 -21z"/>
<path d="M9052 6262 c-8 -17 -9 -28 -2 -30 5 -2 10 -19 10 -38 0 -24 5 -34 15
-34 10 0 15 10 15 34 0 19 5 36 10 38 13 4 -10 58 -25 58 -5 0 -16 -12 -23
-28z"/>
<path d="M2384 6259 c-10 -17 13 -36 27 -22 12 12 4 33 -11 33 -5 0 -12 -5
-16 -11z"/>
<path d="M550 6240 c-23 -23 -25 -39 -6 -65 16 -22 74 -25 87 -4 38 60 -31
119 -81 69z m60 -30 c0 -24 -29 -38 -40 -20 -12 19 -1 40 21 40 12 0 19 -7 19
-20z"/>
<path d="M790 6205 c0 -44 3 -53 15 -49 11 4 15 21 15 55 0 37 -4 49 -15 49
-12 0 -15 -13 -15 -55z"/>
<path d="M855 6244 c-35 -35 -8 -91 40 -82 16 4 25 1 25 -8 0 -21 -20 -27 -46
-13 -28 15 -42 6 -24 -16 7 -8 27 -15 46 -15 42 0 54 21 54 93 l0 55 -40 0
c-23 1 -46 -6 -55 -14z m63 -37 c4 -20 -25 -34 -40 -19 -15 15 -1 44 19 40 10
-2 19 -11 21 -21z"/>
<path d="M988 6248 c-28 -23 -29 -48 -3 -74 13 -13 31 -24 40 -24 19 0 55 35
55 55 0 21 -36 55 -58 55 -10 0 -25 -6 -34 -12z m55 -31 c8 -20 -9 -41 -27
-34 -23 9 -21 47 3 47 10 0 21 -6 24 -13z"/>
<path d="M1298 6249 c-28 -16 -23 -65 7 -85 21 -14 31 -15 50 -6 33 15 33 36
0 28 -14 -4 -31 -3 -38 1 -7 5 5 10 30 13 42 5 42 6 30 30 -14 27 -51 36 -79
19z m52 -25 c0 -2 -9 -4 -21 -4 -11 0 -18 4 -14 10 5 8 35 3 35 -6z"/>
<path d="M1520 6184 c0 -59 3 -74 15 -74 9 0 15 10 15 26 0 21 3 24 21 19 26
-9 59 20 59 51 0 34 -25 53 -70 52 l-40 0 0 -74z m78 23 c4 -20 -25 -34 -40
-19 -15 15 -1 44 19 40 10 -2 19 -11 21 -21z"/>
<path d="M1650 6209 c0 -37 4 -49 15 -49 10 0 15 10 15 34 0 26 5 35 22 39 29
8 15 21 -23 23 -28 2 -29 0 -29 -47z"/>
<path d="M1736 6241 c-24 -26 -17 -62 15 -80 24 -13 29 -13 53 2 33 22 34 60
4 81 -30 21 -51 20 -72 -3z m62 -34 c4 -20 -25 -34 -40 -19 -15 15 -1 44 19
40 10 -2 19 -11 21 -21z"/>
<path d="M1974 6246 c-9 -23 4 -83 19 -89 6 -2 27 -2 45 0 31 5 32 7 32 54 0
36 -4 49 -14 49 -10 0 -16 -13 -18 -37 -4 -50 -26 -55 -30 -7 -3 39 -24 57
-34 30z"/>
<path d="M2270 6242 c-29 -23 -21 -67 15 -84 52 -23 100 46 59 86 -20 21 -47
20 -74 -2z m60 -32 c0 -24 -26 -38 -42 -22 -16 16 -2 42 22 42 13 0 20 -7 20
-20z"/>
<path d="M8940 6209 c0 -36 4 -49 14 -49 10 0 16 13 18 38 2 20 8 37 13 37 6
0 11 -17 13 -37 2 -25 8 -38 18 -38 10 0 14 13 14 45 0 25 -3 46 -7 46 -5 1
-25 3 -45 4 l-38 2 0 -48z"/>
<path d="M9130 6240 c-23 -23 -25 -40 -7 -62 17 -21 38 -27 65 -17 32 12 27
30 -7 23 -16 -4 -32 -1 -35 5 -5 7 6 11 33 11 47 0 55 19 19 44 -30 21 -44 20
-68 -4z m45 -10 c3 -6 -4 -10 -17 -10 -18 0 -20 2 -8 10 19 12 18 12 25 0z"/>
<path d="M9240 6208 c0 -37 4 -48 16 -48 11 0 14 5 10 16 -9 23 2 54 20 54 8
0 14 6 14 13 0 8 -12 14 -30 14 -29 0 -30 -2 -30 -49z"/>
<path d="M9563 6238 c-13 -15 -15 -24 -7 -46 8 -22 16 -27 42 -27 20 0 32 -5
32 -13 0 -18 -29 -27 -43 -13 -6 6 -17 11 -24 11 -11 0 -11 -5 -3 -20 8 -14
21 -20 45 -20 43 0 55 20 55 93 l0 54 -40 0 c-26 0 -45 -6 -57 -19z m65 -31
c4 -20 -25 -34 -40 -19 -15 15 -1 44 19 40 10 -2 19 -11 21 -21z"/>
<path d="M9685 6252 c-3 -3 -5 -25 -5 -49 0 -32 4 -43 15 -43 10 0 15 10 15
31 0 22 5 32 20 36 32 8 24 32 -10 31 -16 -1 -32 -3 -35 -6z"/>
<path d="M9778 6249 c-27 -15 -23 -65 6 -84 18 -12 30 -13 50 -5 35 13 24 31
-14 23 -19 -3 -30 -1 -30 6 0 6 16 11 35 11 39 0 46 17 19 44 -18 18 -41 20
-66 5z m47 -19 c3 -5 -3 -10 -15 -10 -12 0 -18 5 -15 10 3 6 10 10 15 10 5 0
12 -4 15 -10z"/>
<path d="M9888 6238 c-33 -33 -14 -78 32 -78 17 0 30 -5 30 -10 0 -16 -33 -26
-38 -12 -5 17 -32 15 -32 -2 0 -26 66 -36 88 -14 7 7 12 39 12 73 l0 61 -37 0
c-22 0 -44 -7 -55 -18z m62 -27 c0 -26 -17 -36 -35 -21 -18 15 -8 40 16 40 12
0 19 -7 19 -19z"/>
<path d="M10023 6253 c-21 -8 -14 -24 9 -21 11 2 23 -3 26 -11 3 -8 0 -11 -7
-7 -18 12 -51 -4 -51 -24 0 -25 24 -37 61 -32 27 4 29 7 29 47 0 50 -23 66
-67 48z m37 -63 c0 -5 -7 -10 -15 -10 -8 0 -15 5 -15 10 0 6 7 10 15 10 8 0
15 -4 15 -10z"/>
<path d="M10120 6208 c0 -36 4 -48 15 -48 10 0 15 11 15 35 0 24 5 35 15 35 8
0 15 6 15 13 0 8 -12 14 -30 14 -29 0 -30 -2 -30 -49z"/>
<path d="M2384 6179 c-10 -17 13 -36 27 -22 12 12 4 33 -11 33 -5 0 -12 -5
-16 -11z"/>
<path d="M710 5511 c0 -23 -4 -28 -18 -24 -24 6 -45 -21 -37 -47 5 -15 15 -20
41 -20 l34 0 0 60 c0 33 -4 60 -10 60 -5 0 -10 -13 -10 -29z m0 -55 c0 -21
-21 -31 -30 -15 -5 7 -6 17 -4 21 9 14 34 9 34 -6z"/>
<path d="M1066 5533 c-3 -3 -6 -14 -6 -24 0 -11 -9 -19 -22 -21 -18 -2 -23
-10 -23 -33 0 -27 3 -30 34 -30 l33 0 2 53 c1 52 -4 69 -18 55z m-8 -80 c-4
-22 -22 -20 -26 1 -2 10 3 16 13 16 10 0 15 -7 13 -17z"/>
<path d="M1189 5523 c-2 -26 -2 -76 0 -90 0 -7 6 -13 11 -13 6 0 10 24 10 54
0 30 -4 58 -10 61 -5 3 -10 -2 -11 -12z"/>
<path d="M1560 5509 c0 -18 -4 -28 -10 -24 -6 3 -19 3 -31 0 -15 -5 -19 -14
-17 -33 3 -23 8 -27 41 -30 l37 -3 0 60 c0 34 -4 61 -10 61 -5 0 -10 -14 -10
-31z m-4 -50 c8 -14 -18 -31 -30 -19 -9 9 0 30 14 30 5 0 12 -5 16 -11z"/>
<path d="M3710 5511 c0 -24 -4 -28 -19 -24 -13 3 -23 -2 -30 -15 -17 -32 -3
-52 35 -52 l34 0 0 60 c0 33 -4 60 -10 60 -5 0 -10 -13 -10 -29z m-2 -58 c-4
-22 -22 -20 -26 1 -2 10 3 16 13 16 10 0 15 -7 13 -17z"/>
<path d="M3838 5534 c-14 -13 -9 -114 5 -114 8 0 11 14 9 48 -4 67 -6 75 -14
66z"/>
<path d="M4209 5537 c-1 -4 -3 -11 -4 -17 -1 -5 -3 -14 -4 -19 0 -5 -11 -11
-23 -13 -18 -2 -23 -10 -23 -33 0 -27 3 -30 35 -33 l35 -3 -2 57 c-3 49 -10
82 -14 61z m-11 -84 c-4 -22 -22 -20 -26 1 -2 10 3 16 13 16 10 0 15 -7 13
-17z"/>
<path d="M7106 5533 c-3 -3 -6 -14 -6 -24 0 -11 -9 -19 -22 -21 -16 -2 -24
-11 -26 -27 -5 -31 19 -50 53 -43 23 4 25 9 25 58 0 50 -9 72 -24 57z m-8 -80
c-4 -22 -22 -20 -26 1 -2 10 3 16 13 16 10 0 15 -7 13 -17z"/>
<path d="M7277 5533 c-4 -3 -7 -14 -7 -24 0 -11 -9 -19 -22 -21 -18 -2 -23
-10 -23 -33 0 -27 4 -30 33 -33 l32 -3 0 60 c0 62 -1 66 -13 54z m-9 -80 c-4
-22 -22 -20 -26 1 -2 10 3 16 13 16 10 0 15 -7 13 -17z"/>
<path d="M9156 5533 c-3 -3 -6 -30 -6 -60 0 -40 4 -53 15 -53 11 0 15 13 15
54 0 51 -9 74 -24 59z"/>
<path d="M480 5510 c-38 -38 -18 -90 35 -90 22 0 35 5 35 13 0 7 -12 13 -27
12 -23 0 -28 4 -28 25 0 21 5 25 28 25 29 -1 37 19 11 29 -25 9 -33 7 -54 -14z"/>
<path d="M600 5515 c-8 -9 -8 -15 -2 -15 12 0 26 19 19 26 -2 2 -10 -2 -17
-11z"/>
<path d="M3196 5521 c-4 -5 -2 -12 3 -15 5 -4 12 -2 15 3 4 5 2 12 -3 15 -5 4
-12 2 -15 -3z"/>
<path d="M3405 5521 c-3 -5 -1 -12 5 -16 5 -3 10 1 10 9 0 18 -6 21 -15 7z"/>
<path d="M3470 5515 c-7 -8 -8 -15 -2 -15 5 0 15 7 22 15 7 8 8 15 2 15 -5 0
-15 -7 -22 -15z"/>
<path d="M5685 5522 c-3 -3 -5 -27 -5 -54 0 -48 13 -65 23 -28 3 12 14 20 25
20 22 0 35 22 26 44 -5 14 -59 27 -69 18z m45 -32 c0 -5 -7 -10 -15 -10 -8 0
-15 5 -15 10 0 6 7 10 15 10 8 0 15 -4 15 -10z"/>
<path d="M5985 5521 c-3 -5 -1 -12 5 -16 5 -3 10 1 10 9 0 18 -6 21 -15 7z"/>
<path d="M6729 5523 c-24 -6 -41 -50 -29 -73 16 -30 46 -43 70 -30 29 16 24
25 -12 25 -29 0 -33 3 -33 25 0 21 5 26 33 28 28 3 31 6 21 18 -11 14 -20 15
-50 7z"/>
<path d="M7015 5521 c-3 -5 -1 -12 5 -16 5 -3 10 1 10 9 0 18 -6 21 -15 7z"/>
<path d="M8898 5522 c-29 -3 -39 -22 -13 -22 11 0 15 -11 15 -40 0 -22 5 -40
10 -40 6 0 10 18 10 40 0 29 4 40 15 40 18 0 20 16 3 22 -7 2 -25 2 -40 0z"/>
<path d="M750 5510 c0 -5 5 -10 10 -10 6 0 10 5 10 10 0 6 -4 10 -10 10 -5 0
-10 -4 -10 -10z"/>
<path d="M2810 5470 l0 -50 35 0 c44 0 65 34 47 75 -9 20 -19 25 -47 25 l-35
0 0 -50z m63 18 c6 -19 -11 -48 -28 -48 -10 0 -15 10 -15 30 0 23 5 30 19 30
11 0 21 -6 24 -12z"/>
<path d="M1756 5495 c-4 -10 -14 -13 -35 -9 -23 5 -32 2 -41 -16 -9 -16 -9
-25 1 -36 13 -16 59 -19 59 -4 0 6 -8 10 -17 8 -10 -2 -19 4 -21 15 -3 13 3
17 27 17 26 0 31 -4 31 -25 0 -36 17 -31 23 8 7 49 -12 80 -27 42z"/>
<path d="M4397 5496 c-3 -8 -15 -12 -29 -9 -30 6 -52 -18 -43 -47 6 -20 55
-30 55 -11 0 5 -8 8 -17 7 -30 -2 -20 29 10 32 23 3 27 0 27 -22 0 -14 5 -26
10 -26 6 0 10 11 10 25 0 14 5 25 10 25 6 0 5 8 -2 20 -15 23 -24 25 -31 6z"/>
<path d="M6967 5498 c-6 -18 4 -78 13 -78 9 0 19 60 13 78 -3 6 -9 12 -13 12
-4 0 -10 -6 -13 -12z"/>
<path d="M9027 5498 c-8 -22 5 -78 18 -78 8 0 11 8 8 21 -3 12 0 25 7 29 11 7
10 11 -3 24 -19 19 -23 20 -30 4z"/>
<path d="M582 5481 c-8 -4 -12 -19 -10 -32 2 -19 9 -24 33 -24 24 0 31 5 33
24 4 23 -11 41 -33 41 -5 0 -16 -4 -23 -9z m36 -28 c-4 -22 -22 -20 -26 1 -2
10 3 16 13 16 10 0 15 -7 13 -17z"/>
<path d="M750 5455 c0 -19 5 -35 10 -35 6 0 10 16 10 35 0 19 -4 35 -10 35 -5
0 -10 -16 -10 -35z"/>
<path d="M789 5469 c-13 -24 4 -49 32 -49 11 0 19 -5 19 -11 0 -7 -10 -9 -26
-5 -19 5 -25 3 -22 -6 3 -7 12 -14 22 -16 29 -6 46 18 46 63 0 40 -2 42 -30
43 -20 0 -33 -6 -41 -19z m51 -14 c0 -8 -7 -15 -15 -15 -8 0 -15 7 -15 15 0 8
7 15 15 15 8 0 15 -7 15 -15z"/>
<path d="M880 5469 c-15 -27 5 -51 39 -47 19 2 27 10 29 27 6 41 -48 57 -68
20z m48 -16 c-4 -22 -22 -20 -26 1 -2 10 3 16 13 16 10 0 15 -7 13 -17z"/>
<path d="M1112 5481 c-8 -4 -12 -19 -10 -32 3 -27 43 -39 62 -19 8 9 6 11 -11
6 -12 -4 -24 -2 -28 4 -4 6 4 10 20 10 20 0 26 4 23 18 -4 19 -36 27 -56 13z
m35 -17 c-3 -3 -12 -4 -19 -1 -8 3 -5 6 6 6 11 1 17 -2 13 -5z"/>
<path d="M1270 5434 c0 -30 5 -54 10 -54 6 0 10 9 10 20 0 15 7 20 25 20 54 0
41 64 -14 67 l-31 1 0 -54z m54 27 c3 -5 -1 -14 -8 -20 -16 -13 -32 2 -21 19
8 12 22 13 29 1z"/>
<path d="M1360 5455 c0 -19 5 -35 10 -35 6 0 10 11 10 25 0 16 6 25 15 25 8 0
15 5 15 10 0 6 -11 10 -25 10 -22 0 -25 -4 -25 -35z"/>
<path d="M1421 5471 c-6 -11 -8 -27 -5 -35 8 -22 63 -21 71 0 15 40 -46 73
-66 35z m49 -15 c0 -21 -21 -31 -30 -15 -5 7 -6 17 -4 21 9 14 34 9 34 -6z"/>
<path d="M1600 5455 c0 -32 2 -35 30 -35 28 0 30 3 30 35 0 19 -4 35 -10 35
-5 0 -10 -13 -10 -30 0 -16 -4 -30 -10 -30 -5 0 -10 14 -10 30 0 17 -4 30 -10
30 -5 0 -10 -16 -10 -35z"/>
<path d="M1801 5471 c-6 -11 -8 -27 -5 -35 8 -22 63 -21 71 0 15 40 -46 73
-66 35z m49 -14 c0 -8 -3 -17 -7 -20 -9 -9 -34 13 -27 24 8 14 34 11 34 -4z"/>
<path d="M2914 5476 c-16 -41 31 -76 60 -46 8 9 6 11 -11 6 -12 -4 -24 -2 -28
4 -4 6 4 10 20 10 20 0 26 4 23 18 -4 22 -56 29 -64 8z m43 -12 c-3 -3 -12 -4
-19 -1 -8 3 -5 6 6 6 11 1 17 -2 13 -5z"/>
<path d="M2997 5476 c-3 -8 4 -22 16 -31 16 -11 17 -15 5 -11 -10 3 -20 1 -23
-3 -6 -10 24 -20 43 -14 18 7 15 30 -5 42 -17 10 -17 10 0 11 10 0 15 5 12 10
-9 15 -42 12 -48 -4z"/>
<path d="M3072 5481 c-8 -4 -12 -19 -10 -32 2 -18 10 -25 31 -27 15 -2 27 1
27 6 0 5 -8 9 -17 8 -10 0 -19 7 -21 18 -3 15 0 18 17 13 14 -3 21 0 21 9 0
15 -27 18 -48 5z"/>
<path d="M3140 5455 c0 -19 5 -35 10 -35 6 0 10 11 10 25 0 14 5 25 10 25 6 0
10 5 10 10 0 6 -9 10 -20 10 -16 0 -20 -7 -20 -35z"/>
<path d="M3200 5455 c0 -19 5 -35 10 -35 6 0 10 16 10 35 0 19 -4 35 -10 35
-5 0 -10 -16 -10 -35z"/>
<path d="M3238 5457 c-2 -18 0 -44 3 -58 7 -24 7 -24 14 -2 4 12 17 23 29 25
16 2 21 10 21 33 0 26 -4 30 -31 33 -29 3 -32 0 -36 -31z m50 -4 c-4 -22 -22
-20 -26 1 -2 10 3 16 13 16 10 0 15 -7 13 -17z"/>
<path d="M3330 5475 c-18 -22 -3 -55 26 -55 13 0 24 5 24 11 0 5 -4 8 -8 5 -4
-2 -14 -1 -21 4 -16 9 -6 30 15 30 8 0 14 5 14 10 0 15 -36 12 -50 -5z"/>
<path d="M3400 5455 c0 -19 5 -35 10 -35 6 0 10 16 10 35 0 19 -4 35 -10 35
-5 0 -10 -16 -10 -35z"/>
<path d="M3452 5481 c-8 -4 -12 -19 -10 -32 4 -32 52 -39 67 -10 18 33 -24 64
-57 42z m36 -28 c-4 -22 -22 -20 -26 1 -2 10 3 16 13 16 10 0 15 -7 13 -17z"/>
<path d="M3530 5454 c0 -19 5 -34 10 -34 6 0 10 11 10 25 0 14 5 25 10 25 6 0
10 -11 10 -25 0 -16 6 -25 15 -25 9 0 15 9 15 23 0 33 -12 45 -42 45 -25 0
-28 -4 -28 -34z"/>
<path d="M3750 5469 c-9 -15 -8 -24 1 -35 14 -17 55 -19 65 -3 5 9 -1 10 -20
5 -15 -4 -26 -2 -26 4 0 5 11 10 25 10 27 0 32 9 13 28 -18 18 -46 14 -58 -9z
m47 -5 c-3 -3 -12 -4 -19 -1 -8 3 -5 6 6 6 11 1 17 -2 13 -5z"/>
<path d="M3920 5434 c0 -34 4 -53 10 -49 6 3 10 12 10 20 0 7 10 15 23 17 17
2 22 10 22 33 0 27 -3 30 -32 32 l-33 1 0 -54z m50 21 c0 -8 -7 -15 -15 -15
-8 0 -15 7 -15 15 0 8 7 15 15 15 8 0 15 -7 15 -15z"/>
<path d="M4010 5455 c0 -19 5 -35 10 -35 6 0 10 10 10 21 0 12 8 28 18 35 15
12 14 13 -10 14 -25 0 -28 -3 -28 -35z"/>
<path d="M4070 5475 c-20 -24 -8 -50 27 -53 25 -2 33 1 38 18 13 40 -38 68
-65 35z m46 -16 c8 -14 -18 -31 -30 -19 -9 9 0 30 14 30 5 0 12 -5 16 -11z"/>
<path d="M4242 5458 c3 -29 7 -33 36 -36 31 -3 32 -2 32 32 0 42 -17 49 -22 9
-4 -34 -22 -33 -26 2 -5 37 -24 30 -20 -7z"/>
<path d="M4450 5475 c-20 -24 -8 -50 27 -53 25 -2 33 1 38 18 13 40 -38 68
-65 35z m46 -16 c8 -14 -18 -31 -30 -19 -9 9 0 30 14 30 5 0 12 -5 16 -11z"/>
<path d="M5770 5455 c0 -19 5 -35 10 -35 6 0 10 11 10 25 0 14 5 25 10 25 6 0
10 5 10 10 0 6 -9 10 -20 10 -16 0 -20 -7 -20 -35z"/>
<path d="M5831 5476 c-22 -26 -9 -51 27 -54 19 -2 32 1 32 8 0 7 -8 9 -19 5
-11 -3 -22 -1 -26 5 -4 6 4 10 20 10 20 0 26 4 23 18 -4 22 -41 27 -57 8z m36
-12 c-3 -3 -12 -4 -19 -1 -8 3 -5 6 6 6 11 1 17 -2 13 -5z"/>
<path d="M5910 5475 c-20 -24 -3 -55 31 -55 16 0 29 5 29 11 0 6 -8 8 -19 4
-11 -3 -21 0 -24 9 -7 18 1 26 25 26 11 0 16 5 13 10 -9 15 -41 12 -55 -5z"/>
<path d="M5980 5455 c0 -19 5 -35 10 -35 6 0 10 16 10 35 0 19 -4 35 -10 35
-5 0 -10 -16 -10 -35z"/>
<path d="M6032 5481 c-8 -4 -12 -19 -10 -32 4 -32 52 -39 67 -10 18 33 -24 64
-57 42z m36 -28 c-4 -22 -22 -20 -26 1 -2 10 3 16 13 16 10 0 15 -7 13 -17z"/>
<path d="M6810 5480 c0 -5 8 -10 18 -11 13 0 12 -2 -5 -9 -37 -15 -29 -40 12
-40 30 0 35 3 35 23 0 13 -5 28 -12 35 -15 15 -48 16 -48 2z m30 -40 c0 -5 -4
-10 -10 -10 -5 0 -10 5 -10 10 0 6 5 10 10 10 6 0 10 -4 10 -10z"/>
<path d="M6880 5454 c0 -19 5 -34 10 -34 6 0 10 11 10 25 0 16 6 25 15 25 9 0
15 -9 15 -25 0 -14 5 -25 11 -25 6 0 9 14 7 33 -3 28 -7 32 -35 34 -31 1 -33
-1 -33 -33z"/>
<path d="M7010 5455 c0 -19 5 -35 10 -35 6 0 10 16 10 35 0 19 -4 35 -10 35
-5 0 -10 -16 -10 -35z"/>
<path d="M7146 5481 c-4 -5 4 -12 16 -14 l23 -4 -22 -2 c-16 -1 -23 -7 -23
-21 0 -16 7 -20 34 -20 32 0 33 1 27 33 -5 22 -13 33 -28 35 -12 2 -24 -1 -27
-7z m34 -41 c0 -5 -4 -10 -10 -10 -5 0 -10 5 -10 10 0 6 5 10 10 10 6 0 10 -4
10 -10z"/>
<path d="M8950 5475 c-20 -24 -8 -50 27 -53 25 -2 33 1 38 18 13 40 -38 68
-65 35z m46 -16 c10 -17 -13 -36 -27 -22 -12 12 -4 33 11 33 5 0 12 -5 16 -11z"/>
<path d="M9080 5481 c0 -6 10 -11 23 -12 21 -1 21 -1 -3 -8 -14 -4 -26 -15
-28 -24 -3 -13 4 -17 33 -17 35 0 36 1 33 33 -2 27 -8 33 -30 35 -16 2 -28 -1
-28 -7z m35 -41 c-3 -5 -10 -10 -16 -10 -5 0 -9 5 -9 10 0 6 7 10 16 10 8 0
12 -4 9 -10z"/>
<path d="M10050 4640 c0 -13 5 -20 13 -17 6 2 12 10 12 17 0 7 -6 15 -12 18
-8 2 -13 -5 -13 -18z"/>
<path d="M10124 4649 c-10 -17 13 -36 27 -22 12 12 4 33 -11 33 -5 0 -12 -5
-16 -11z"/>
<path d="M10063 4574 c-15 -24 -15 -29 -2 -53 20 -35 62 -40 83 -9 21 30 20
44 -4 68 -27 27 -56 25 -77 -6z m65 -27 c4 -20 -25 -34 -40 -19 -15 15 -1 44
19 40 10 -2 19 -11 21 -21z"/>
<path d="M10043 4473 c-28 -5 -31 -33 -4 -33 11 0 22 -6 25 -12 5 -10 7 -10
12 0 3 6 21 12 40 12 24 0 34 5 34 15 0 10 -10 15 -29 15 -16 0 -35 2 -43 4
-7 2 -23 1 -35 -1z"/>
<path d="M10056 4395 c-15 -39 23 -77 67 -67 34 7 45 82 12 82 -7 0 -11 -9 -8
-24 3 -15 -1 -25 -12 -30 -25 -9 -38 3 -32 30 5 27 -17 34 -27 9z"/>
<path d="M10060 4296 c0 -9 12 -16 32 -18 22 -2 34 -9 36 -20 3 -15 -4 -18
-32 -18 -25 0 -36 -4 -36 -15 0 -10 10 -15 34 -15 38 0 70 25 62 47 -3 8 -6
23 -6 34 0 16 -7 19 -45 19 -32 0 -45 -4 -45 -14z"/>
<path d="M9990 4175 c0 -11 11 -15 36 -15 31 0 36 -3 31 -19 -7 -27 20 -61 48
-61 32 0 52 31 47 74 l-4 36 -79 0 c-64 0 -79 -3 -79 -15z m138 -38 c4 -20
-25 -34 -40 -19 -15 15 -1 44 19 40 10 -2 19 -11 21 -21z"/>
<path d="M10082 4063 c-7 -3 -18 -16 -23 -30 -21 -57 51 -100 85 -51 21 30 20
44 -4 68 -20 20 -33 23 -58 13z m43 -48 c0 -13 -8 -21 -22 -23 -17 -3 -23 2
-23 16 0 10 3 22 7 26 13 13 38 1 38 -19z"/>
<path d="M10058 3945 c-3 -3 -3 -17 0 -30 4 -22 9 -25 48 -25 24 0 44 5 44 10
0 6 -14 10 -31 10 -22 0 -32 5 -36 20 -5 20 -15 25 -25 15z"/>
<path d="M10075 3856 c-12 -9 -19 -26 -19 -55 l-1 -41 73 0 c57 0 72 3 72 15
0 9 -10 15 -26 15 -20 0 -24 4 -20 18 12 38 -45 73 -79 48z m44 -25 c19 -12 6
-41 -19 -41 -13 0 -20 7 -20 18 0 31 14 39 39 23z"/>
<path d="M9990 3655 c0 -12 16 -15 80 -15 64 0 80 3 80 15 0 12 -16 15 -80 15
-64 0 -80 -3 -80 -15z"/>
<path d="M10066 3604 c-35 -34 -11 -84 40 -84 28 0 36 5 44 25 6 16 6 34 0 51
-13 34 -31 21 -23 -16 3 -19 1 -30 -6 -30 -6 0 -11 16 -11 35 0 39 -17 46 -44
19z m24 -36 c0 -16 -3 -19 -11 -11 -6 6 -8 16 -5 22 11 17 16 13 16 -11z"/>
<path d="M9990 3485 c0 -11 11 -15 36 -15 33 0 36 -2 31 -22 -8 -28 18 -58 49
-58 28 0 60 42 48 62 -5 7 -7 21 -6 31 3 15 -6 17 -77 17 -65 0 -81 -3 -81
-15z m138 -38 c4 -20 -25 -34 -40 -19 -15 15 -1 44 19 40 10 -2 19 -11 21 -21z"/>
<path d="M10065 3286 c-18 -27 -8 -69 19 -79 27 -10 63 9 68 37 11 58 -56 90
-87 42z m65 -25 c0 -20 -25 -35 -41 -25 -5 3 -9 14 -9 25 0 14 7 19 25 19 18
0 25 -5 25 -19z"/>
<path d="M10057 3156 c-6 -45 2 -65 31 -73 35 -8 57 9 57 46 0 17 5 31 12 31
20 0 26 -21 12 -46 -15 -28 -6 -42 16 -24 8 7 15 28 15 46 0 41 -26 55 -95 52
-40 -1 -44 -3 -48 -32z m68 -21 c0 -13 -8 -21 -22 -23 -17 -3 -23 2 -23 16 0
10 3 22 7 26 13 13 38 1 38 -19z"/>
<path d="M10007 3053 c-12 -11 -8 -23 8 -23 8 0 15 7 15 15 0 16 -12 20 -23 8z"/>
<path d="M10060 3045 c0 -11 12 -15 45 -15 33 0 45 4 45 15 0 11 -12 15 -45
15 -33 0 -45 -4 -45 -15z"/>
<path d="M9990 2985 c0 -11 11 -15 36 -15 30 0 35 -3 29 -19 -7 -22 25 -61 50
-61 22 0 57 39 51 57 -3 8 -6 23 -6 34 0 17 -8 19 -80 19 -64 0 -80 -3 -80
-15z m140 -34 c0 -20 -25 -35 -41 -25 -5 3 -9 14 -9 25 0 14 7 19 25 19 18 0
25 -5 25 -19z"/>
<path d="M10065 2856 c-12 -17 -13 -30 -6 -49 18 -46 74 -46 92 1 13 33 -12
72 -46 72 -15 0 -31 -9 -40 -24z m65 -26 c0 -24 -26 -38 -42 -22 -16 16 -2 42
22 42 13 0 20 -7 20 -20z"/>
<path d="M10000 2841 c0 -13 29 -35 37 -28 7 8 -15 37 -28 37 -5 0 -9 -4 -9
-9z"/>
<path d="M10006 2734 c-11 -28 -6 -51 15 -78 37 -47 111 -32 132 27 11 30 -3
67 -24 67 -17 0 -18 -3 -9 -20 22 -42 -13 -80 -60 -65 -25 8 -37 50 -20 70 10
12 9 15 -8 15 -11 0 -23 -7 -26 -16z"/>
<path d="M2818 1953 c452 -2 1192 -2 1645 0 452 1 82 2 -823 2 -905 0 -1275
-1 -822 -2z"/>
<path d="M6733 1953 c153 -2 401 -2 550 0 150 1 25 2 -278 2 -302 0 -425 -1
-272 -2z"/>
<path d="M9260 1730 c0 -33 4 -60 10 -60 6 0 10 27 10 60 0 33 -4 60 -10 60
-6 0 -10 -27 -10 -60z"/>
<path d="M10050 1766 c0 -18 -6 -25 -22 -28 -18 -2 -23 -10 -23 -33 0 -27 3
-30 33 -32 l32 -1 0 59 c0 33 -4 59 -10 59 -5 0 -10 -11 -10 -24z m0 -62 c0
-8 -7 -14 -15 -14 -15 0 -21 21 -9 33 10 9 24 -2 24 -19z"/>
<path d="M9170 1725 l0 -55 35 0 c19 0 35 5 35 10 0 6 -11 10 -25 10 -16 0
-25 6 -25 15 0 8 9 15 20 15 11 0 20 5 20 10 0 6 -9 10 -20 10 -11 0 -20 5
-20 10 0 6 11 10 25 10 14 0 25 5 25 10 0 6 -16 10 -35 10 l-35 0 0 -55z"/>
<path d="M9300 1770 c0 -5 5 -10 11 -10 5 0 7 5 4 10 -3 6 -8 10 -11 10 -2 0
-4 -4 -4 -10z"/>
<path d="M9460 1770 c0 -5 5 -10 10 -10 6 0 10 5 10 10 0 6 -4 10 -10 10 -5 0
-10 -4 -10 -10z"/>
<path d="M10248 1749 c-6 -18 3 -79 12 -79 9 0 19 60 13 78 -6 15 -20 16 -25
1z"/>
<path d="M9300 1704 c0 -21 4 -33 10 -29 12 7 10 65 -2 65 -4 0 -8 -16 -8 -36z"/>
<path d="M9340 1703 c0 -28 3 -34 10 -23 5 8 10 23 10 33 0 10 5 15 10 12 6
-3 10 -17 10 -31 0 -13 5 -24 10 -24 6 0 10 14 10 30 0 17 5 30 10 30 6 0 10
-13 10 -30 0 -16 5 -30 11 -30 6 0 9 14 7 33 -3 31 -5 32 -50 35 l-48 2 0 -37z"/>
<path d="M9460 1705 c0 -19 5 -35 10 -35 6 0 10 16 10 35 0 19 -4 35 -10 35
-5 0 -10 -16 -10 -35z"/>
<path d="M9500 1705 c0 -19 5 -35 10 -35 6 0 10 11 10 24 0 14 5 28 10 31 6 4
10 -7 10 -24 0 -17 5 -31 10 -31 6 0 10 16 10 35 0 32 -2 35 -30 35 -28 0 -30
-3 -30 -35z"/>
<path d="M9590 1730 c0 -5 7 -7 15 -4 8 4 15 1 15 -5 0 -6 -9 -11 -21 -11 -32
0 -20 -34 14 -38 25 -3 27 -1 27 32 0 32 -3 36 -25 36 -14 0 -25 -4 -25 -10z
m30 -34 c0 -3 -4 -8 -10 -11 -5 -3 -10 -1 -10 4 0 6 5 11 10 11 6 0 10 -2 10
-4z"/>
<path d="M9660 1705 c0 -19 5 -35 10 -35 6 0 10 10 10 21 0 12 8 28 18 35 15
12 14 13 -10 14 -25 0 -28 -3 -28 -35z"/>
<path d="M9770 1691 c0 -31 4 -51 11 -51 6 0 9 6 6 14 -4 10 2 16 21 18 23 2
27 8 27 33 0 27 -4 30 -32 33 l-33 3 0 -50z m50 13 c0 -8 -7 -14 -15 -14 -15
0 -21 21 -9 33 10 9 24 -2 24 -19z"/>
<path d="M9860 1705 c0 -19 5 -35 10 -35 6 0 10 11 10 25 0 14 5 25 10 25 6 0
10 5 10 10 0 6 -9 10 -20 10 -16 0 -20 -7 -20 -35z"/>
<path d="M9913 1724 c-16 -41 46 -73 67 -34 9 16 8 25 -1 36 -16 19 -58 18
-66 -2z m51 -25 c-8 -14 -34 -11 -34 4 0 8 3 17 7 20 9 9 34 -13 27 -24z"/>
<path d="M10092 1708 c3 -29 7 -33 36 -35 30 -1 32 1 32 33 0 19 -4 34 -10 34
-5 0 -10 -11 -10 -25 0 -16 -6 -25 -15 -25 -9 0 -15 9 -15 25 0 14 -5 25 -11
25 -6 0 -9 -14 -7 -32z"/>
<path d="M10179 1724 c-9 -11 -10 -20 -2 -32 11 -19 53 -29 53 -13 0 6 -9 11
-21 11 -14 0 -19 5 -17 18 2 9 11 16 21 16 9 -1 17 2 17 7 0 15 -37 10 -51 -7z"/>
<path d="M10303 1733 c-16 -6 -17 -35 -1 -51 18 -18 46 -14 58 9 19 34 -15 59
-57 42z m41 -34 c-8 -14 -34 -11 -34 4 0 8 3 17 7 20 9 9 34 -13 27 -24z"/>
<path d="M9117 1569 c7 -7 15 -10 18 -7 3 3 -2 9 -12 12 -14 6 -15 5 -6 -5z"/>
<path d="M9870 715 c0 -32 -2 -34 -28 -29 -36 7 -54 -14 -50 -58 3 -32 5 -33
51 -36 28 -2 47 1 48 7 1 6 1 27 1 46 0 82 -3 105 -12 105 -5 0 -10 -16 -10
-35z m-7 -68 c8 -20 -9 -41 -27 -34 -23 9 -21 47 3 47 10 0 21 -6 24 -13z"/>
<path d="M10039 693 c0 -32 -2 -68 -3 -80 -2 -15 3 -23 13 -23 13 0 16 14 16
80 0 57 -4 80 -12 80 -9 0 -13 -19 -14 -57z"/>
<path d="M10230 714 c0 -31 -3 -35 -20 -29 -31 10 -60 -12 -60 -45 0 -34 35
-64 58 -51 8 5 23 6 33 4 17 -5 19 2 19 76 0 65 -3 81 -15 81 -11 0 -15 -11
-15 -36z m-5 -79 c0 -30 -39 -27 -43 3 -3 20 0 23 20 20 15 -2 23 -10 23 -23z"/>
<path d="M9091 728 c0 -7 15 -44 33 -83 l32 -69 37 78 c20 43 37 80 37 82 0 2
-7 4 -16 4 -8 0 -24 -20 -36 -47 l-22 -48 -20 48 c-18 43 -47 65 -45 35z"/>
<path d="M10291 726 c-19 -23 4 -28 24 -6 15 17 16 20 3 20 -9 0 -21 -6 -27
-14z"/>
<path d="M9470 705 c0 -8 -4 -15 -10 -15 -5 0 -10 -7 -10 -15 0 -8 5 -15 10
-15 6 0 10 -16 10 -35 0 -23 5 -35 14 -35 14 0 28 77 19 111 -6 22 -33 26 -33
4z"/>
<path d="M9237 672 c-20 -22 -22 -56 -4 -69 20 -16 53 -21 71 -11 27 15 19 30
-13 23 -17 -3 -32 -2 -36 4 -4 7 8 11 34 11 45 0 48 5 25 38 -18 27 -55 29
-77 4z m48 -12 c3 -5 -3 -10 -15 -10 -12 0 -18 5 -15 10 3 6 10 10 15 10 5 0
12 -4 15 -10z"/>
<path d="M9347 684 c-1 -1 -1 -23 1 -48 3 -28 9 -46 17 -46 8 0 10 9 7 25 -5
26 14 59 29 49 5 -3 9 -21 9 -40 0 -24 5 -34 15 -34 19 0 21 73 3 87 -11 9
-73 14 -81 7z"/>
<path d="M9543 683 c-21 -8 -15 -25 6 -18 11 3 22 2 25 -3 3 -5 -8 -12 -25
-16 -25 -5 -30 -10 -27 -28 2 -19 10 -24 46 -26 l42 -3 0 44 c0 52 -23 69 -67
50z m37 -63 c0 -5 -7 -10 -15 -10 -8 0 -15 5 -15 10 0 6 7 10 15 10 8 0 15 -4
15 -10z"/>
<path d="M9639 674 c-12 -14 -9 -20 16 -41 l30 -25 -27 6 c-36 8 -37 -11 -1
-25 20 -7 30 -6 41 5 18 18 9 46 -18 53 -11 3 -20 9 -20 14 0 5 12 6 28 3 24
-7 26 -6 13 9 -17 21 -45 22 -62 1z"/>
<path d="M9924 665 c-14 -21 -15 -31 -5 -51 9 -21 17 -25 48 -22 20 2 38 9 41
15 2 9 -5 11 -26 7 -17 -4 -32 -1 -36 5 -5 7 6 11 33 11 45 0 48 5 25 38 -21
30 -59 29 -80 -3z m51 -5 c3 -6 -4 -10 -17 -10 -18 0 -20 2 -8 10 19 12 18 12
25 0z"/>
<path d="M10287 683 c-4 -3 -7 -26 -7 -50 0 -32 4 -43 15 -43 11 0 15 12 15
50 0 46 -7 60 -23 43z"/>
<path d="M10353 683 c-24 -9 -13 -23 17 -23 17 0 30 -4 30 -8 0 -4 -12 -8 -26
-7 -15 0 -31 -8 -38 -18 -15 -25 12 -44 57 -39 34 4 34 4 29 45 -6 52 -27 68
-69 50z m42 -63 c-3 -5 -13 -10 -21 -10 -8 0 -14 5 -14 10 0 6 9 10 21 10 11
0 17 -4 14 -10z"/>
<path d="M4591 634 c-26 -33 -28 -94 -3 -124 35 -44 108 -18 112 40 4 50 0 70
-20 90 -28 28 -64 25 -89 -6z m67 -16 c17 -17 15 -74 -4 -93 -15 -15 -18 -15
-35 1 -21 19 -25 55 -9 85 12 22 30 25 48 7z"/>
<path d="M4751 641 c-27 -27 -35 -75 -19 -108 26 -55 90 -62 115 -12 43 83
-36 180 -96 120z m70 -38 c15 -40 0 -78 -31 -78 -22 0 -25 5 -28 38 -5 64 39
93 59 40z"/>
<path d="M4962 628 c-22 -37 -82 -163 -82 -172 0 -3 6 -6 14 -6 10 0 106 185
106 205 0 16 -21 0 -38 -27z"/>
<path d="M5041 634 c-43 -55 -16 -146 42 -146 55 0 84 52 65 118 -15 58 -72
72 -107 28z m67 -16 c14 -14 16 -67 3 -86 -13 -21 -45 -10 -55 20 -18 50 20
98 52 66z"/>
<path d="M5201 641 c-60 -60 -11 -179 62 -152 32 12 47 39 47 84 0 70 -66 111
-109 68z m70 -38 c15 -40 0 -78 -31 -78 -22 0 -25 5 -28 38 -5 64 39 93 59 40z"/>
<path d="M5422 648 c-11 -14 -92 -183 -92 -192 0 -3 6 -6 13 -6 12 0 107 178
107 200 0 14 -16 12 -28 -2z"/>
<path d="M5491 634 c-44 -56 -18 -144 42 -144 42 0 56 10 66 48 26 90 -56 162
-108 96z m67 -16 c14 -14 16 -67 3 -86 -13 -21 -44 -10 -54 18 -10 29 6 80 26
80 7 0 18 -5 25 -12z"/>
<path d="M5650 640 c-21 -21 -24 -33 -21 -85 1 -39 44 -78 74 -69 56 16 76 97
36 148 -25 31 -61 34 -89 6z m70 -36 c14 -36 13 -49 -8 -74 -17 -21 -19 -21
-35 -5 -9 9 -17 31 -17 49 0 55 43 77 60 30z"/>
<path d="M4298 273 c7 -3 16 -2 19 1 4 3 -2 6 -13 5 -11 0 -14 -3 -6 -6z"/>
</g>
</svg>
